<svg width="261" height="24" viewBox="0 0 261 24" fill="none" xmlns="http://www.w3.org/2000/svg">
<path d="M7.14062 14.0703C7.14062 13.8359 7.10417 13.6276 7.03125 13.4453C6.96354 13.263 6.84115 13.0964 6.66406 12.9453C6.48698 12.7943 6.23698 12.6484 5.91406 12.5078C5.59635 12.362 5.1901 12.2135 4.69531 12.0625C4.15365 11.8958 3.65365 11.7109 3.19531 11.5078C2.74219 11.2995 2.34635 11.0599 2.00781 10.7891C1.66927 10.513 1.40625 10.1979 1.21875 9.84375C1.03125 9.48438 0.9375 9.07031 0.9375 8.60156C0.9375 8.13802 1.03385 7.71615 1.22656 7.33594C1.42448 6.95573 1.70312 6.6276 2.0625 6.35156C2.42708 6.07031 2.85677 5.85417 3.35156 5.70312C3.84635 5.54688 4.39323 5.46875 4.99219 5.46875C5.83594 5.46875 6.5625 5.625 7.17188 5.9375C7.78646 6.25 8.25781 6.66927 8.58594 7.19531C8.91927 7.72135 9.08594 8.30208 9.08594 8.9375H7.14062C7.14062 8.5625 7.0599 8.23177 6.89844 7.94531C6.74219 7.65365 6.5026 7.42448 6.17969 7.25781C5.86198 7.09115 5.45833 7.00781 4.96875 7.00781C4.50521 7.00781 4.11979 7.07812 3.8125 7.21875C3.50521 7.35938 3.27604 7.54948 3.125 7.78906C2.97396 8.02865 2.89844 8.29948 2.89844 8.60156C2.89844 8.8151 2.94792 9.01042 3.04688 9.1875C3.14583 9.35938 3.29688 9.52083 3.5 9.67188C3.70312 9.81771 3.95833 9.95573 4.26562 10.0859C4.57292 10.2161 4.9349 10.3411 5.35156 10.4609C5.98177 10.6484 6.53125 10.8568 7 11.0859C7.46875 11.3099 7.85938 11.5651 8.17188 11.8516C8.48438 12.138 8.71875 12.4635 8.875 12.8281C9.03125 13.1875 9.10938 13.5964 9.10938 14.0547C9.10938 14.5339 9.01302 14.9661 8.82031 15.3516C8.6276 15.7318 8.35156 16.0573 7.99219 16.3281C7.63802 16.5938 7.21094 16.7995 6.71094 16.9453C6.21615 17.0859 5.66406 17.1562 5.05469 17.1562C4.50781 17.1562 3.96875 17.0833 3.4375 16.9375C2.91146 16.7917 2.43229 16.5703 2 16.2734C1.56771 15.9714 1.22396 15.5964 0.96875 15.1484C0.713542 14.6953 0.585938 14.1667 0.585938 13.5625H2.54688C2.54688 13.9323 2.60938 14.2474 2.73438 14.5078C2.86458 14.7682 3.04427 14.9818 3.27344 15.1484C3.5026 15.3099 3.76823 15.4297 4.07031 15.5078C4.3776 15.5859 4.70573 15.625 5.05469 15.625C5.51302 15.625 5.89583 15.5599 6.20312 15.4297C6.51562 15.2995 6.75 15.1172 6.90625 14.8828C7.0625 14.6484 7.14062 14.3776 7.14062 14.0703ZM14.8512 8.54688V9.92188H10.0856V8.54688H14.8512ZM11.4606 6.47656H13.3434V14.6641C13.3434 14.9245 13.3799 15.125 13.4528 15.2656C13.5309 15.401 13.6377 15.4922 13.7731 15.5391C13.9085 15.5859 14.0674 15.6094 14.2497 15.6094C14.3799 15.6094 14.5049 15.6016 14.6247 15.5859C14.7445 15.5703 14.8408 15.5547 14.9137 15.5391L14.9216 16.9766C14.7653 17.0234 14.583 17.0651 14.3747 17.1016C14.1716 17.138 13.9372 17.1562 13.6716 17.1562C13.2393 17.1562 12.8565 17.0807 12.5231 16.9297C12.1898 16.7734 11.9294 16.5208 11.7419 16.1719C11.5544 15.8229 11.4606 15.3594 11.4606 14.7812V6.47656ZM21.7103 15.0078V8.54688H23.6009V17H21.8197L21.7103 15.0078ZM21.9759 13.25L22.6088 13.2344C22.6088 13.8021 22.5463 14.3255 22.4213 14.8047C22.2963 15.2786 22.1035 15.6927 21.8431 16.0469C21.5827 16.3958 21.2494 16.6693 20.8431 16.8672C20.4369 17.0599 19.9499 17.1562 19.3822 17.1562C18.9707 17.1562 18.5931 17.0964 18.2494 16.9766C17.9056 16.8568 17.6088 16.6719 17.3588 16.4219C17.114 16.1719 16.9239 15.8464 16.7884 15.4453C16.653 15.0443 16.5853 14.5651 16.5853 14.0078V8.54688H18.4681V14.0234C18.4681 14.3307 18.5046 14.5885 18.5775 14.7969C18.6504 15 18.7494 15.1641 18.8744 15.2891C18.9994 15.4141 19.1452 15.5026 19.3119 15.5547C19.4785 15.6068 19.6556 15.6328 19.8431 15.6328C20.3796 15.6328 20.8015 15.5286 21.1088 15.3203C21.4213 15.1068 21.6426 14.8203 21.7728 14.4609C21.9082 14.1016 21.9759 13.6979 21.9759 13.25ZM31.0069 15.25V5H32.8975V17H31.1866L31.0069 15.25ZM25.5069 12.8672V12.7031C25.5069 12.0625 25.5824 11.4792 25.7334 10.9531C25.8845 10.4219 26.1032 9.96615 26.3897 9.58594C26.6761 9.20052 27.0251 8.90625 27.4366 8.70312C27.848 8.49479 28.3116 8.39062 28.8272 8.39062C29.3376 8.39062 29.7855 8.48958 30.1709 8.6875C30.5564 8.88542 30.8845 9.16927 31.1553 9.53906C31.4261 9.90365 31.6423 10.3411 31.8037 10.8516C31.9652 11.3568 32.0798 11.9193 32.1475 12.5391V13.0625C32.0798 13.6667 31.9652 14.2188 31.8037 14.7188C31.6423 15.2188 31.4261 15.651 31.1553 16.0156C30.8845 16.3802 30.5537 16.6615 30.1631 16.8594C29.7777 17.0573 29.3272 17.1562 28.8116 17.1562C28.3011 17.1562 27.8402 17.0495 27.4287 16.8359C27.0225 16.6224 26.6761 16.3229 26.3897 15.9375C26.1032 15.5521 25.8845 15.099 25.7334 14.5781C25.5824 14.0521 25.5069 13.4818 25.5069 12.8672ZM27.3897 12.7031V12.8672C27.3897 13.2526 27.4235 13.612 27.4912 13.9453C27.5642 14.2786 27.6761 14.5729 27.8272 14.8281C27.9782 15.0781 28.1735 15.276 28.4131 15.4219C28.6579 15.5625 28.9496 15.6328 29.2881 15.6328C29.7152 15.6328 30.0668 15.5391 30.3428 15.3516C30.6189 15.1641 30.835 14.9115 30.9912 14.5938C31.1527 14.2708 31.2621 13.9115 31.3194 13.5156V12.1016C31.2881 11.7943 31.223 11.5078 31.1241 11.2422C31.0303 10.9766 30.9027 10.7448 30.7412 10.5469C30.5798 10.3438 30.3793 10.1875 30.1397 10.0781C29.9053 9.96354 29.6267 9.90625 29.3037 9.90625C28.96 9.90625 28.6683 9.97917 28.4287 10.125C28.1892 10.2708 27.9912 10.4714 27.835 10.7266C27.684 10.9818 27.572 11.2786 27.4991 11.6172C27.4261 11.9557 27.3897 12.3177 27.3897 12.7031ZM37.2019 8.54688V17H35.3112V8.54688H37.2019ZM35.1862 6.32812C35.1862 6.04167 35.28 5.80469 35.4675 5.61719C35.6602 5.42448 35.9258 5.32812 36.2644 5.32812C36.5977 5.32812 36.8607 5.42448 37.0534 5.61719C37.2461 5.80469 37.3425 6.04167 37.3425 6.32812C37.3425 6.60938 37.2461 6.84375 37.0534 7.03125C36.8607 7.21875 36.5977 7.3125 36.2644 7.3125C35.9258 7.3125 35.6602 7.21875 35.4675 7.03125C35.28 6.84375 35.1862 6.60938 35.1862 6.32812ZM39.225 12.8672V12.6875C39.225 12.0781 39.3135 11.513 39.4906 10.9922C39.6677 10.4661 39.9229 10.0104 40.2562 9.625C40.5948 9.23438 41.0062 8.93229 41.4906 8.71875C41.9802 8.5 42.5323 8.39062 43.1469 8.39062C43.7667 8.39062 44.3187 8.5 44.8031 8.71875C45.2927 8.93229 45.7068 9.23438 46.0453 9.625C46.3839 10.0104 46.6417 10.4661 46.8187 10.9922C46.9958 11.513 47.0844 12.0781 47.0844 12.6875V12.8672C47.0844 13.4766 46.9958 14.0417 46.8187 14.5625C46.6417 15.0833 46.3839 15.5391 46.0453 15.9297C45.7068 16.3151 45.2953 16.6172 44.8109 16.8359C44.3266 17.0495 43.7771 17.1562 43.1625 17.1562C42.5427 17.1562 41.988 17.0495 41.4984 16.8359C41.0141 16.6172 40.6026 16.3151 40.2641 15.9297C39.9255 15.5391 39.6677 15.0833 39.4906 14.5625C39.3135 14.0417 39.225 13.4766 39.225 12.8672ZM41.1078 12.6875V12.8672C41.1078 13.2474 41.1469 13.6068 41.225 13.9453C41.3031 14.2839 41.4255 14.5807 41.5922 14.8359C41.7589 15.0911 41.9724 15.2917 42.2328 15.4375C42.4932 15.5833 42.8031 15.6562 43.1625 15.6562C43.5115 15.6562 43.8135 15.5833 44.0687 15.4375C44.3292 15.2917 44.5427 15.0911 44.7094 14.8359C44.876 14.5807 44.9984 14.2839 45.0766 13.9453C45.1599 13.6068 45.2016 13.2474 45.2016 12.8672V12.6875C45.2016 12.3125 45.1599 11.9583 45.0766 11.625C44.9984 11.2865 44.8734 10.987 44.7016 10.7266C44.5349 10.4661 44.3214 10.263 44.0609 10.1172C43.8057 9.96615 43.501 9.89062 43.1469 9.89062C42.7927 9.89062 42.4854 9.96615 42.225 10.1172C41.9698 10.263 41.7589 10.4661 41.5922 10.7266C41.4255 10.987 41.3031 11.2865 41.225 11.625C41.1469 11.9583 41.1078 12.3125 41.1078 12.6875Z" fill="#2E2F42"/>
<path d="M93.4766 12.7578H90.5156V11.2031H93.4766C93.9922 11.2031 94.4089 11.1198 94.7266 10.9531C95.0443 10.7865 95.276 10.5573 95.4219 10.2656C95.5729 9.96875 95.6484 9.63021 95.6484 9.25C95.6484 8.89062 95.5729 8.55469 95.4219 8.24219C95.276 7.92448 95.0443 7.66927 94.7266 7.47656C94.4089 7.28385 93.9922 7.1875 93.4766 7.1875H91.1172V17H89.1562V5.625H93.4766C94.3568 5.625 95.1042 5.78125 95.7188 6.09375C96.3385 6.40104 96.8099 6.82812 97.1328 7.375C97.4557 7.91667 97.6172 8.53646 97.6172 9.23438C97.6172 9.96875 97.4557 10.599 97.1328 11.125C96.8099 11.651 96.3385 12.0547 95.7188 12.3359C95.1042 12.6172 94.3568 12.7578 93.4766 12.7578ZM99.0387 12.8672V12.6875C99.0387 12.0781 99.1273 11.513 99.3044 10.9922C99.4815 10.4661 99.7367 10.0104 100.07 9.625C100.409 9.23438 100.82 8.93229 101.304 8.71875C101.794 8.5 102.346 8.39062 102.961 8.39062C103.58 8.39062 104.132 8.5 104.617 8.71875C105.106 8.93229 105.521 9.23438 105.859 9.625C106.198 10.0104 106.455 10.4661 106.632 10.9922C106.81 11.513 106.898 12.0781 106.898 12.6875V12.8672C106.898 13.4766 106.81 14.0417 106.632 14.5625C106.455 15.0833 106.198 15.5391 105.859 15.9297C105.521 16.3151 105.109 16.6172 104.625 16.8359C104.14 17.0495 103.591 17.1562 102.976 17.1562C102.356 17.1562 101.802 17.0495 101.312 16.8359C100.828 16.6172 100.416 16.3151 100.078 15.9297C99.7393 15.5391 99.4815 15.0833 99.3044 14.5625C99.1273 14.0417 99.0387 13.4766 99.0387 12.8672ZM100.922 12.6875V12.8672C100.922 13.2474 100.961 13.6068 101.039 13.9453C101.117 14.2839 101.239 14.5807 101.406 14.8359C101.573 15.0911 101.786 15.2917 102.047 15.4375C102.307 15.5833 102.617 15.6562 102.976 15.6562C103.325 15.6562 103.627 15.5833 103.882 15.4375C104.143 15.2917 104.356 15.0911 104.523 14.8359C104.69 14.5807 104.812 14.2839 104.89 13.9453C104.974 13.6068 105.015 13.2474 105.015 12.8672V12.6875C105.015 12.3125 104.974 11.9583 104.89 11.625C104.812 11.2865 104.687 10.987 104.515 10.7266C104.349 10.4661 104.135 10.263 103.875 10.1172C103.619 9.96615 103.315 9.89062 102.961 9.89062C102.606 9.89062 102.299 9.96615 102.039 10.1172C101.784 10.263 101.573 10.4661 101.406 10.7266C101.239 10.987 101.117 11.2865 101.039 11.625C100.961 11.9583 100.922 12.3125 100.922 12.6875ZM110.687 10.1562V17H108.804V8.54688H110.601L110.687 10.1562ZM113.273 8.49219L113.257 10.2422C113.143 10.2214 113.018 10.2057 112.882 10.1953C112.752 10.1849 112.622 10.1797 112.492 10.1797C112.169 10.1797 111.885 10.2266 111.64 10.3203C111.395 10.4089 111.189 10.5391 111.023 10.7109C110.861 10.8776 110.736 11.0807 110.648 11.3203C110.559 11.5599 110.507 11.8281 110.492 12.125L110.062 12.1562C110.062 11.625 110.114 11.1328 110.218 10.6797C110.322 10.2266 110.479 9.82812 110.687 9.48438C110.9 9.14062 111.166 8.8724 111.484 8.67969C111.807 8.48698 112.179 8.39062 112.601 8.39062C112.716 8.39062 112.838 8.40104 112.968 8.42188C113.104 8.44271 113.205 8.46615 113.273 8.49219ZM119.038 8.54688V9.92188H114.272V8.54688H119.038ZM115.647 6.47656H117.53V14.6641C117.53 14.9245 117.567 15.125 117.64 15.2656C117.718 15.401 117.825 15.4922 117.96 15.5391C118.095 15.5859 118.254 15.6094 118.437 15.6094C118.567 15.6094 118.692 15.6016 118.812 15.5859C118.931 15.5703 119.028 15.5547 119.101 15.5391L119.108 16.9766C118.952 17.0234 118.77 17.0651 118.562 17.1016C118.358 17.138 118.124 17.1562 117.858 17.1562C117.426 17.1562 117.043 17.0807 116.71 16.9297C116.377 16.7734 116.116 16.5208 115.929 16.1719C115.741 15.8229 115.647 15.3594 115.647 14.7812V6.47656ZM123.358 17H121.475V7.73438C121.475 7.10417 121.593 6.57552 121.827 6.14844C122.066 5.71615 122.408 5.39062 122.85 5.17188C123.293 4.94792 123.816 4.83594 124.421 4.83594C124.608 4.83594 124.793 4.84896 124.975 4.875C125.158 4.89583 125.335 4.92969 125.507 4.97656L125.46 6.42969C125.356 6.40365 125.241 6.38542 125.116 6.375C124.996 6.36458 124.866 6.35938 124.725 6.35938C124.439 6.35938 124.191 6.41406 123.983 6.52344C123.78 6.6276 123.624 6.78125 123.514 6.98438C123.41 7.1875 123.358 7.4375 123.358 7.73438V17ZM125.1 8.54688V9.92188H120.178V8.54688H125.1ZM126.428 12.8672V12.6875C126.428 12.0781 126.517 11.513 126.694 10.9922C126.871 10.4661 127.126 10.0104 127.459 9.625C127.798 9.23438 128.209 8.93229 128.694 8.71875C129.183 8.5 129.735 8.39062 130.35 8.39062C130.97 8.39062 131.522 8.5 132.006 8.71875C132.496 8.93229 132.91 9.23438 133.248 9.625C133.587 10.0104 133.845 10.4661 134.022 10.9922C134.199 11.513 134.287 12.0781 134.287 12.6875V12.8672C134.287 13.4766 134.199 14.0417 134.022 14.5625C133.845 15.0833 133.587 15.5391 133.248 15.9297C132.91 16.3151 132.498 16.6172 132.014 16.8359C131.53 17.0495 130.98 17.1562 130.366 17.1562C129.746 17.1562 129.191 17.0495 128.702 16.8359C128.217 16.6172 127.806 16.3151 127.467 15.9297C127.129 15.5391 126.871 15.0833 126.694 14.5625C126.517 14.0417 126.428 13.4766 126.428 12.8672ZM128.311 12.6875V12.8672C128.311 13.2474 128.35 13.6068 128.428 13.9453C128.506 14.2839 128.629 14.5807 128.795 14.8359C128.962 15.0911 129.176 15.2917 129.436 15.4375C129.696 15.5833 130.006 15.6562 130.366 15.6562C130.715 15.6562 131.017 15.5833 131.272 15.4375C131.532 15.2917 131.746 15.0911 131.912 14.8359C132.079 14.5807 132.202 14.2839 132.28 13.9453C132.363 13.6068 132.405 13.2474 132.405 12.8672V12.6875C132.405 12.3125 132.363 11.9583 132.28 11.625C132.202 11.2865 132.077 10.987 131.905 10.7266C131.738 10.4661 131.524 10.263 131.264 10.1172C131.009 9.96615 130.704 9.89062 130.35 9.89062C129.996 9.89062 129.689 9.96615 129.428 10.1172C129.173 10.263 128.962 10.4661 128.795 10.7266C128.629 10.987 128.506 11.2865 128.428 11.625C128.35 11.9583 128.311 12.3125 128.311 12.6875ZM138.201 5V17H136.311V5H138.201ZM142.599 8.54688V17H140.709V8.54688H142.599ZM140.584 6.32812C140.584 6.04167 140.678 5.80469 140.865 5.61719C141.058 5.42448 141.323 5.32812 141.662 5.32812C141.995 5.32812 142.258 5.42448 142.451 5.61719C142.644 5.80469 142.74 6.04167 142.74 6.32812C142.74 6.60938 142.644 6.84375 142.451 7.03125C142.258 7.21875 141.995 7.3125 141.662 7.3125C141.323 7.3125 141.058 7.21875 140.865 7.03125C140.678 6.84375 140.584 6.60938 140.584 6.32812ZM144.623 12.8672V12.6875C144.623 12.0781 144.711 11.513 144.888 10.9922C145.065 10.4661 145.32 10.0104 145.654 9.625C145.992 9.23438 146.404 8.93229 146.888 8.71875C147.378 8.5 147.93 8.39062 148.544 8.39062C149.164 8.39062 149.716 8.5 150.201 8.71875C150.69 8.93229 151.104 9.23438 151.443 9.625C151.781 10.0104 152.039 10.4661 152.216 10.9922C152.393 11.513 152.482 12.0781 152.482 12.6875V12.8672C152.482 13.4766 152.393 14.0417 152.216 14.5625C152.039 15.0833 151.781 15.5391 151.443 15.9297C151.104 16.3151 150.693 16.6172 150.208 16.8359C149.724 17.0495 149.175 17.1562 148.56 17.1562C147.94 17.1562 147.386 17.0495 146.896 16.8359C146.412 16.6172 146 16.3151 145.662 15.9297C145.323 15.5391 145.065 15.0833 144.888 14.5625C144.711 14.0417 144.623 13.4766 144.623 12.8672ZM146.505 12.6875V12.8672C146.505 13.2474 146.544 13.6068 146.623 13.9453C146.701 14.2839 146.823 14.5807 146.99 14.8359C147.156 15.0911 147.37 15.2917 147.63 15.4375C147.891 15.5833 148.201 15.6562 148.56 15.6562C148.909 15.6562 149.211 15.5833 149.466 15.4375C149.727 15.2917 149.94 15.0911 150.107 14.8359C150.274 14.5807 150.396 14.2839 150.474 13.9453C150.557 13.6068 150.599 13.2474 150.599 12.8672V12.6875C150.599 12.3125 150.557 11.9583 150.474 11.625C150.396 11.2865 150.271 10.987 150.099 10.7266C149.932 10.4661 149.719 10.263 149.458 10.1172C149.203 9.96615 148.899 9.89062 148.544 9.89062C148.19 9.89062 147.883 9.96615 147.623 10.1172C147.367 10.263 147.156 10.4661 146.99 10.7266C146.823 10.987 146.701 11.2865 146.623 11.625C146.544 11.9583 146.505 12.3125 146.505 12.6875Z" fill="#2E2F42"/>
<path d="M201.875 13.2969H203.828C203.766 14.0417 203.557 14.7057 203.203 15.2891C202.849 15.8672 202.352 16.3229 201.711 16.6562C201.07 16.9896 200.292 17.1562 199.375 17.1562C198.672 17.1562 198.039 17.0312 197.477 16.7812C196.914 16.526 196.432 16.1667 196.031 15.7031C195.63 15.2344 195.323 14.6693 195.109 14.0078C194.901 13.3464 194.797 12.6068 194.797 11.7891V10.8438C194.797 10.026 194.904 9.28646 195.117 8.625C195.336 7.96354 195.648 7.39844 196.055 6.92969C196.461 6.45573 196.948 6.09375 197.516 5.84375C198.089 5.59375 198.732 5.46875 199.445 5.46875C200.352 5.46875 201.117 5.63542 201.742 5.96875C202.367 6.30208 202.852 6.76302 203.195 7.35156C203.544 7.9401 203.758 8.61458 203.836 9.375H201.883C201.831 8.88542 201.716 8.46615 201.539 8.11719C201.367 7.76823 201.112 7.5026 200.773 7.32031C200.435 7.13281 199.992 7.03906 199.445 7.03906C198.997 7.03906 198.607 7.1224 198.273 7.28906C197.94 7.45573 197.661 7.70052 197.438 8.02344C197.214 8.34635 197.044 8.74479 196.93 9.21875C196.82 9.6875 196.766 10.224 196.766 10.8281V11.7891C196.766 12.362 196.815 12.8828 196.914 13.3516C197.018 13.8151 197.174 14.2135 197.383 14.5469C197.596 14.8802 197.867 15.138 198.195 15.3203C198.523 15.5026 198.917 15.5938 199.375 15.5938C199.932 15.5938 200.383 15.5052 200.727 15.3281C201.076 15.151 201.339 14.8932 201.516 14.5547C201.698 14.2109 201.818 13.7917 201.875 13.2969ZM205.382 12.8672V12.6875C205.382 12.0781 205.471 11.513 205.648 10.9922C205.825 10.4661 206.08 10.0104 206.414 9.625C206.752 9.23438 207.164 8.93229 207.648 8.71875C208.138 8.5 208.69 8.39062 209.304 8.39062C209.924 8.39062 210.476 8.5 210.961 8.71875C211.45 8.93229 211.864 9.23438 212.203 9.625C212.541 10.0104 212.799 10.4661 212.976 10.9922C213.153 11.513 213.242 12.0781 213.242 12.6875V12.8672C213.242 13.4766 213.153 14.0417 212.976 14.5625C212.799 15.0833 212.541 15.5391 212.203 15.9297C211.864 16.3151 211.453 16.6172 210.968 16.8359C210.484 17.0495 209.935 17.1562 209.32 17.1562C208.7 17.1562 208.146 17.0495 207.656 16.8359C207.172 16.6172 206.76 16.3151 206.422 15.9297C206.083 15.5391 205.825 15.0833 205.648 14.5625C205.471 14.0417 205.382 13.4766 205.382 12.8672ZM207.265 12.6875V12.8672C207.265 13.2474 207.304 13.6068 207.382 13.9453C207.461 14.2839 207.583 14.5807 207.75 14.8359C207.916 15.0911 208.13 15.2917 208.39 15.4375C208.651 15.5833 208.961 15.6562 209.32 15.6562C209.669 15.6562 209.971 15.5833 210.226 15.4375C210.487 15.2917 210.7 15.0911 210.867 14.8359C211.034 14.5807 211.156 14.2839 211.234 13.9453C211.317 13.6068 211.359 13.2474 211.359 12.8672V12.6875C211.359 12.3125 211.317 11.9583 211.234 11.625C211.156 11.2865 211.031 10.987 210.859 10.7266C210.692 10.4661 210.479 10.263 210.218 10.1172C209.963 9.96615 209.659 9.89062 209.304 9.89062C208.95 9.89062 208.643 9.96615 208.382 10.1172C208.127 10.263 207.916 10.4661 207.75 10.7266C207.583 10.987 207.461 11.2865 207.382 11.625C207.304 11.9583 207.265 12.3125 207.265 12.6875ZM217.007 10.3516V17H215.124V8.54688H216.898L217.007 10.3516ZM216.671 12.4609L216.062 12.4531C216.067 11.8542 216.15 11.3047 216.312 10.8047C216.479 10.3047 216.708 9.875 216.999 9.51562C217.296 9.15625 217.65 8.88021 218.062 8.6875C218.473 8.48958 218.932 8.39062 219.437 8.39062C219.843 8.39062 220.21 8.44792 220.538 8.5625C220.872 8.67188 221.156 8.85156 221.39 9.10156C221.63 9.35156 221.812 9.67708 221.937 10.0781C222.062 10.474 222.124 10.9609 222.124 11.5391V17H220.234V11.5312C220.234 11.125 220.174 10.8047 220.054 10.5703C219.939 10.3307 219.77 10.1615 219.546 10.0625C219.327 9.95833 219.054 9.90625 218.726 9.90625C218.403 9.90625 218.114 9.97396 217.859 10.1094C217.604 10.2448 217.387 10.4297 217.21 10.6641C217.038 10.8984 216.906 11.1693 216.812 11.4766C216.718 11.7839 216.671 12.112 216.671 12.4609ZM228.241 8.54688V9.92188H223.476V8.54688H228.241ZM224.851 6.47656H226.733V14.6641C226.733 14.9245 226.77 15.125 226.843 15.2656C226.921 15.401 227.028 15.4922 227.163 15.5391C227.299 15.5859 227.457 15.6094 227.64 15.6094C227.77 15.6094 227.895 15.6016 228.015 15.5859C228.134 15.5703 228.231 15.5547 228.304 15.5391L228.312 16.9766C228.155 17.0234 227.973 17.0651 227.765 17.1016C227.562 17.138 227.327 17.1562 227.062 17.1562C226.629 17.1562 226.246 17.0807 225.913 16.9297C225.58 16.7734 225.319 16.5208 225.132 16.1719C224.944 15.8229 224.851 15.3594 224.851 14.7812V6.47656ZM234.78 15.3047V11.2734C234.78 10.9714 234.725 10.7109 234.616 10.4922C234.507 10.2734 234.34 10.1042 234.116 9.98438C233.897 9.86458 233.621 9.80469 233.288 9.80469C232.981 9.80469 232.715 9.85677 232.491 9.96094C232.267 10.0651 232.092 10.2057 231.967 10.3828C231.842 10.5599 231.78 10.7604 231.78 10.9844H229.905C229.905 10.651 229.986 10.3281 230.147 10.0156C230.309 9.70312 230.543 9.42448 230.85 9.17969C231.158 8.9349 231.525 8.74219 231.952 8.60156C232.379 8.46094 232.858 8.39062 233.389 8.39062C234.025 8.39062 234.587 8.4974 235.077 8.71094C235.572 8.92448 235.96 9.2474 236.241 9.67969C236.527 10.1068 236.671 10.6432 236.671 11.2891V15.0469C236.671 15.4323 236.697 15.7786 236.749 16.0859C236.806 16.388 236.887 16.651 236.991 16.875V17H235.061C234.973 16.7969 234.902 16.5391 234.85 16.2266C234.803 15.9089 234.78 15.6016 234.78 15.3047ZM235.053 11.8594L235.069 13.0234H233.717C233.369 13.0234 233.061 13.0573 232.796 13.125C232.53 13.1875 232.309 13.2812 232.132 13.4062C231.954 13.5312 231.822 13.6823 231.733 13.8594C231.645 14.0365 231.6 14.237 231.6 14.4609C231.6 14.6849 231.652 14.8906 231.757 15.0781C231.861 15.2604 232.012 15.4036 232.21 15.5078C232.413 15.612 232.658 15.6641 232.944 15.6641C233.329 15.6641 233.665 15.5859 233.952 15.4297C234.244 15.2682 234.473 15.0729 234.639 14.8438C234.806 14.6094 234.895 14.388 234.905 14.1797L235.514 15.0156C235.452 15.2292 235.345 15.4583 235.194 15.7031C235.043 15.9479 234.845 16.1823 234.6 16.4062C234.361 16.625 234.072 16.8047 233.733 16.9453C233.4 17.0859 233.014 17.1562 232.577 17.1562C232.025 17.1562 231.533 17.0469 231.1 16.8281C230.668 16.6042 230.329 16.3047 230.085 15.9297C229.84 15.5495 229.717 15.1198 229.717 14.6406C229.717 14.1927 229.801 13.7969 229.967 13.4531C230.139 13.1042 230.389 12.8125 230.717 12.5781C231.051 12.3438 231.457 12.1667 231.936 12.0469C232.415 11.9219 232.962 11.8594 233.577 11.8594H235.053ZM242.412 15.6562C242.72 15.6562 242.996 15.5964 243.241 15.4766C243.491 15.3516 243.691 15.1797 243.842 14.9609C243.998 14.7422 244.084 14.4896 244.1 14.2031H245.873C245.863 14.75 245.702 15.2474 245.389 15.6953C245.077 16.1432 244.662 16.5 244.147 16.7656C243.631 17.026 243.061 17.1562 242.436 17.1562C241.79 17.1562 241.228 17.0469 240.748 16.8281C240.269 16.6042 239.871 16.2969 239.553 15.9062C239.235 15.5156 238.996 15.0651 238.834 14.5547C238.678 14.0443 238.6 13.4974 238.6 12.9141V12.6406C238.6 12.0573 238.678 11.5104 238.834 11C238.996 10.4844 239.235 10.0312 239.553 9.64062C239.871 9.25 240.269 8.94531 240.748 8.72656C241.228 8.5026 241.787 8.39062 242.428 8.39062C243.105 8.39062 243.699 8.52604 244.209 8.79688C244.72 9.0625 245.121 9.4349 245.412 9.91406C245.709 10.388 245.863 10.9401 245.873 11.5703H244.1C244.084 11.2578 244.006 10.9766 243.866 10.7266C243.73 10.4714 243.537 10.2682 243.287 10.1172C243.043 9.96615 242.748 9.89062 242.405 9.89062C242.024 9.89062 241.709 9.96875 241.459 10.125C241.209 10.276 241.014 10.4844 240.873 10.75C240.733 11.0104 240.631 11.3047 240.569 11.6328C240.511 11.9557 240.483 12.2917 240.483 12.6406V12.9141C240.483 13.263 240.511 13.6016 240.569 13.9297C240.626 14.2578 240.725 14.5521 240.866 14.8125C241.011 15.0677 241.209 15.2734 241.459 15.4297C241.709 15.5807 242.027 15.6562 242.412 15.6562ZM251.514 8.54688V9.92188H246.748V8.54688H251.514ZM248.123 6.47656H250.006V14.6641C250.006 14.9245 250.042 15.125 250.115 15.2656C250.193 15.401 250.3 15.4922 250.436 15.5391C250.571 15.5859 250.73 15.6094 250.912 15.6094C251.042 15.6094 251.167 15.6016 251.287 15.5859C251.407 15.5703 251.503 15.5547 251.576 15.5391L251.584 16.9766C251.428 17.0234 251.246 17.0651 251.037 17.1016C250.834 17.138 250.6 17.1562 250.334 17.1562C249.902 17.1562 249.519 17.0807 249.186 16.9297C248.852 16.7734 248.592 16.5208 248.404 16.1719C248.217 15.8229 248.123 15.3594 248.123 14.7812V6.47656ZM258.029 14.7109C258.029 14.5234 257.982 14.3542 257.888 14.2031C257.795 14.0469 257.615 13.9062 257.349 13.7812C257.089 13.6562 256.704 13.5417 256.193 13.4375C255.745 13.3385 255.334 13.2214 254.959 13.0859C254.589 12.9453 254.271 12.776 254.006 12.5781C253.74 12.3802 253.534 12.1458 253.388 11.875C253.243 11.6042 253.17 11.2917 253.17 10.9375C253.17 10.5938 253.245 10.2682 253.396 9.96094C253.547 9.65365 253.763 9.38281 254.045 9.14844C254.326 8.91406 254.667 8.72917 255.068 8.59375C255.474 8.45833 255.928 8.39062 256.428 8.39062C257.136 8.39062 257.743 8.51042 258.248 8.75C258.758 8.98438 259.149 9.30469 259.42 9.71094C259.691 10.112 259.826 10.5651 259.826 11.0703H257.943C257.943 10.8464 257.886 10.638 257.771 10.4453C257.662 10.2474 257.495 10.0885 257.271 9.96875C257.047 9.84375 256.766 9.78125 256.428 9.78125C256.105 9.78125 255.836 9.83333 255.623 9.9375C255.414 10.0365 255.258 10.1667 255.154 10.3281C255.055 10.4896 255.006 10.6667 255.006 10.8594C255.006 11 255.032 11.1276 255.084 11.2422C255.141 11.3516 255.235 11.4531 255.365 11.5469C255.495 11.6354 255.672 11.7188 255.896 11.7969C256.125 11.875 256.412 11.9505 256.756 12.0234C257.401 12.1589 257.956 12.3333 258.42 12.5469C258.888 12.7552 259.248 13.026 259.498 13.3594C259.748 13.6875 259.873 14.1042 259.873 14.6094C259.873 14.9844 259.792 15.3281 259.631 15.6406C259.474 15.9479 259.245 16.2161 258.943 16.4453C258.641 16.6693 258.279 16.8438 257.857 16.9688C257.441 17.0938 256.972 17.1562 256.451 17.1562C255.685 17.1562 255.037 17.0208 254.506 16.75C253.974 16.474 253.571 16.1224 253.295 15.6953C253.024 15.263 252.888 14.8151 252.888 14.3516H254.709C254.73 14.7005 254.826 14.9792 254.998 15.1875C255.175 15.3906 255.394 15.5391 255.654 15.6328C255.92 15.7214 256.193 15.7656 256.474 15.7656C256.813 15.7656 257.097 15.7214 257.326 15.6328C257.555 15.5391 257.73 15.4141 257.849 15.2578C257.969 15.0964 258.029 14.9141 258.029 14.7109Z" fill="#2E2F42"/>
</svg>
